<svg width="138" height="7" viewBox="0 0 138 7" fill="none" xmlns="http://www.w3.org/2000/svg">
<path d="M0.375 3.375C0.375 3.375 32.8488 3.375 52.375 3.375M52.375 3.375C56.375 3.375 58.875 0.375 58.875 0.375M52.375 3.375C56.375 3.375 58.875 6.375 58.875 6.375M52.375 3.375H57.375M57.375 3.375C61.375 3.375 63.875 0.375 63.875 0.375M57.375 3.375C61.375 3.375 63.875 6.375 63.875 6.375M137.375 3.375H85.375M85.375 3.375C81.375 3.375 78.875 0.375 78.875 0.375M85.375 3.375C81.375 3.375 78.875 6.375 78.875 6.375M85.375 3.375H80.375M80.375 3.375C76.375 3.375 73.875 0.375 73.875 0.375M80.375 3.375C76.375 3.375 73.875 6.375 73.875 6.375M64.875 3.375L68.875 0.375L72.875 3.375L68.875 6.375L64.875 3.375Z" stroke="black" stroke-width="0.75" stroke-linecap="round" stroke-linejoin="round"/>
</svg>
