<?xml version="1.0" encoding="UTF-8" standalone="no"?>
<svg xmlns="http://www.w3.org/2000/svg" viewBox="0 0 474.66666 212" height="212" width="474.66666" xml:space="preserve" id="svg2" version="1.1">
    <defs id="defs6" />
    <g transform="matrix(1.3333333,0,0,-1.3333333,0,212)" id="g10">
        <path
       id="path14"
       style="fill:#ffffff;fill-opacity:1;fill-rule:nonzero;stroke:none"
       d="M 105.628,96.408 H 126.1 l 0.668,-19.744 h 0.258 l 8.507,19.744 h 20.42 l -7.324,-36.09 h -12.373 l 5.772,28.358 h -0.311 L 128.83,60.318 h -11.494 l -1.14,28.358 h -0.361 L 110.063,60.318 H 98.307 l 7.321,36.09" /><path
       id="path16"
       style="fill:#ffffff;fill-opacity:1;fill-rule:nonzero;stroke:none"
       d="m 184.3,73.727 h 0.825 c 3.867,0 6.033,4.224 6.033,7.367 0,2.32 -1.34,4.074 -3.764,4.074 h -0.773 z m -10.261,11.441 h -0.771 c -3.662,0 -6.135,-3.865 -6.135,-7.27 0,-2.109 1.289,-4.171 3.765,-4.171 h 0.823 z m -5.771,-25.469 1.135,5.779 h -2.477 c -9.488,0 -12.944,5.356 -12.944,10.719 0,7.94 6.396,17.221 18.977,17.221 h 2.166 l 1.08,5.414 h 13.824 l -1.084,-5.414 h 2.164 c 5.051,0 13.196,-1.186 13.196,-10.777 0,-8.401 -6.029,-17.163 -18.354,-17.163 h -2.733 l -1.134,-5.779 h -13.816" /><path
       id="path18"
       style="fill:#ffffff;fill-opacity:1;fill-rule:nonzero;stroke:none"
       d="M 245.466,96.408 243.3,85.734 h -12.17 l -5.153,-25.416 h -13.818 l 5.154,25.416 h -12.17 l 2.166,10.674 h 38.157" /><path
       id="path20"
       style="fill:#ffffff;fill-opacity:1;fill-rule:nonzero;stroke:none"
       d="m 262.376,96.408 -4.178,-20.619 h 0.207 l 13.307,20.619 h 16.136 l -7.32,-36.09 h -13.82 l 4.123,20.211 h -0.205 L 257.378,60.318 h -16.139 l 7.318,36.09 h 13.819" /><path
       id="path22"
       style="fill:#ffffff;fill-opacity:1;fill-rule:nonzero;stroke:none"
       d="m 298.575,46.717 1.963,10.23 19.336,-5.816 -21.299,-4.414" /><path
       id="path24"
       style="fill:#ffffff;fill-opacity:1;fill-rule:nonzero;stroke:none"
       d="M 293.993,54.617 H 94.229 c -3.69,0 -5.295,-4.094 -6.844,-8.053 -0.542,-1.379 -1.393,-3.549 -2.043,-4.443 -1.179,1.176 -2.045,6.795 -2.383,9.01 l -0.188,1.224 C 81.582,59.957 80.512,67.98 79.475,75.734 74.945,109.65 72.798,121.525 66.494,121.645 58.588,121.793 55.778,107.789 47.44,66.224 L 46.348,60.793 C 45.111,54.617 42.295,54.617 41.093,54.617 H 37.34 l -0.931,-5.349 h 4.684 c 3.136,0 8.673,1.361 10.501,10.472 l 1.088,5.432 c 5.143,25.625 10.002,49.799 13.434,51.008 2.982,-3.174 5.906,-25.043 8.056,-41.151 1.043,-7.787 2.115,-15.838 3.318,-23.5 l 0.182,-1.201 c 0.934,-6.133 2.094,-13.764 7.848,-13.764 3.69,0 5.295,4.092 6.844,8.051 0.593,1.514 1.558,3.963 2.226,4.653 h 198.475 l 0.928,5.349" /></g></svg>
